<svg width="16" height="16" viewBox="0 0 16 16" fill="none" xmlns="http://www.w3.org/2000/svg">
<path d="M15.5595 13.4395L10.12 8L15.5595 2.56046C16.1468 1.97319 16.1468 1.02772 15.5595 0.440453C14.9723 -0.146818 14.0268 -0.146818 13.4395 0.440453L8 5.87999L2.56046 0.440453C1.97319 -0.146818 1.02772 -0.146818 0.440453 0.440453C-0.146818 1.02772 -0.146818 1.97319 0.440453 2.56046L5.87999 8L0.440453 13.4395C-0.146818 14.0268 -0.146818 14.9723 0.440453 15.5595C1.02772 16.1468 1.97319 16.1468 2.56046 15.5595L8 10.12L13.4395 15.5595C14.0268 16.1468 14.9723 16.1468 15.5595 15.5595C16.1427 14.9723 16.1427 14.0226 15.5595 13.4395Z" fill="#CE3E3E"/>
</svg>
