<svg width="100" height="93" viewBox="0 0 100 93" fill="none" xmlns="http://www.w3.org/2000/svg">
<path d="M20.6457 77.4041C36.5301 70.5628 63.9737 72.4501 78.4419 81.8862C83.7104 75.3595 81.9019 59.6322 75.8469 57.824C80.0146 41.8611 71.6793 7.73355 91.8882 6.63261C99.9876 15.2825 105.02 -3.90475 92.1241 0.734976C65.4696 3.30134 74.7626 36.4806 68.5339 56.1725C46.2014 51.2971 8.77102 61.9914 16.3992 67.9676C38.5741 61.9913 65.9392 54.8355 75.8468 75.2806C64.8382 64.272 24.105 66.2378 20.6454 77.4037L20.6457 77.4041Z" fill="#FCD173"/>
<path d="M22.297 57.1169C4.60439 42.255 -35.3006 -1.058 70.1855 20.0801C-7.42673 15.8338 2.71695 22.4392 22.297 57.1169Z" fill="#FCD173"/>
<path d="M9.08647 33.5253C26.3863 27.7849 47.2241 25.5832 66.1753 29.279C48.325 28.0209 27.644 32.4244 10.9739 38.0074C10.3448 36.5133 9.71575 35.0193 9.08663 33.5252L9.08647 33.5253Z" fill="#FCD173"/>
<path d="M14.748 44.3773C15.613 46.0286 16.4779 47.68 17.3429 49.3313C29.0596 41.7823 45.2585 38.4795 61.9286 39.4236C49.583 33.0543 33.9344 35.413 14.748 44.3773Z" fill="#FCD173"/>
<path d="M10.0298 21.4949L16.871 18.4281C26.7786 30.3809 31.9689 42.8049 35.2718 55.701C28.981 43.5914 21.982 32.6612 10.0301 21.4949H10.0298Z" fill="#FCD173"/>
<path d="M24.1843 17.2481C26.1502 17.1694 28.116 17.0908 30.082 17.0121C39.0463 27.8639 42.8212 38.9509 42.8212 50.2748C39.44 39.2662 34.1713 28.2568 24.1852 17.2482L24.1843 17.2481Z" fill="#FCD173"/>
<path d="M40.6977 17.4848C42.5849 17.5634 44.4721 17.6421 46.3594 17.7207C49.9765 27.0779 52.6502 35.9639 52.257 45.7931C50.9988 35.8855 46.438 27.1563 40.6979 17.4847L40.6977 17.4848Z" fill="#FCD173"/>
<path d="M25.8782 73.3682C24.4588 73.3885 23.1346 73.7924 22.0728 74.6167C18.9842 77.0144 19.2725 82.0615 22.7166 85.8838C26.1607 89.7065 31.4641 90.8646 34.5526 88.4668C37.6412 86.0691 37.3529 81.0194 33.9089 77.1971C31.6486 74.6885 28.5883 73.3295 25.8785 73.3684L25.8782 73.3682ZM28.3073 78.1561C29.4939 78.1379 30.8336 78.7816 31.8233 79.965C33.3315 81.7683 33.4599 84.1483 32.1074 85.2794C30.7549 86.4105 28.4314 85.8656 26.9233 84.0623C25.4152 82.2589 25.2893 79.8763 26.6418 78.7452C27.1067 78.3564 27.6857 78.1657 28.3073 78.1561Z" fill="#370900" stroke="#FCD173" stroke-width="4.99977" stroke-linecap="round" stroke-linejoin="round"/>
<path d="M67.987 73.3682C66.5676 73.3885 65.2433 73.7924 64.1816 74.6167C61.093 77.0144 61.3813 82.0615 64.8254 85.8838C68.2695 89.7065 73.5721 90.8646 76.6614 88.4668C79.75 86.0691 79.4617 81.0194 76.0176 77.1971C73.7574 74.6885 70.6968 73.3293 67.987 73.3682ZM70.4161 78.1561C71.6027 78.1379 72.9425 78.7816 73.9321 79.965C75.4403 81.7683 75.5687 84.1483 74.2162 85.2794C72.8638 86.4105 70.5403 85.8656 69.0321 84.0623C67.524 82.2589 67.3981 79.8763 68.7506 78.7452C69.2155 78.3564 69.7946 78.1657 70.4161 78.1561Z" fill="#370900" stroke="#FCD173" stroke-width="4.99977" stroke-linecap="round" stroke-linejoin="round"/>
</svg>
